<svg width="1090" height="32" viewBox="0 0 1090 32" fill="none" xmlns="http://www.w3.org/2000/svg">
<g clip-path="url(#clip0_9_823)">
<path fill-rule="evenodd" clip-rule="evenodd" d="M484.645 9.34824C483.329 8.4692 481.782 8 480.2 8V0C483.365 0 486.458 0.938384 489.089 2.69649C491.721 4.45458 493.771 6.95345 494.982 9.87704C496.193 12.8006 496.51 16.0178 495.893 19.1214C495.275 22.2251 493.752 25.0761 491.514 27.3137C489.276 29.5514 486.425 31.0752 483.322 31.6926C480.218 32.3099 477.001 31.993 474.077 30.7821C471.154 29.571 468.655 27.5203 466.897 24.8891C465.139 22.2579 464.2 19.1645 464.2 16H472.2C472.2 17.5822 472.669 19.129 473.548 20.4446C474.427 21.7602 475.677 22.7855 477.139 23.391C478.601 23.9966 480.209 24.155 481.761 23.8462C483.313 23.5376 484.738 22.7757 485.857 21.6569C486.976 20.538 487.738 19.1126 488.046 17.5607C488.355 16.0089 488.197 14.4003 487.591 12.9386C486.986 11.4767 485.96 10.2273 484.645 9.34824Z" fill="white"/>
<path fill-rule="evenodd" clip-rule="evenodd" d="M472.2 4.22794e-06C472.2 1.05058 471.993 2.09087 471.591 3.06148C471.189 4.03207 470.6 4.91399 469.857 5.65686C469.114 6.39973 468.232 6.989 467.262 7.39104C466.291 7.79308 465.251 8 464.2 8L464.2 16C466.301 16 468.382 15.5862 470.323 14.7821C472.264 13.978 474.028 12.7994 475.514 11.3137C477 9.828 478.178 8.06416 478.982 6.12294C479.786 4.18172 480.2 2.10115 480.2 0L472.2 4.22794e-06Z" fill="white"/>
<path d="M564.696 11.562H560.814V23.8919H564.696V11.562Z" fill="white"/>
<path d="M561.246 9.25338C561.651 9.6593 562.158 9.86226 562.767 9.86226C563.376 9.86226 563.875 9.6593 564.264 9.25338C564.654 8.83058 564.848 8.32314 564.848 7.73118C564.848 7.12231 564.654 6.61489 564.264 6.20899C563.875 5.80305 563.376 5.6001 562.767 5.6001C562.158 5.6001 561.651 5.80305 561.246 6.20899C560.856 6.61489 560.662 7.12231 560.662 7.73118C560.662 8.32314 560.856 8.83058 561.246 9.25338Z" fill="white"/>
<path d="M505.125 23.8918V5.98047H509.108V20.3907H517.049V23.8918H505.125Z" fill="white"/>
<path fill-rule="evenodd" clip-rule="evenodd" d="M524.222 24.171C522.954 24.171 521.803 23.8919 520.772 23.3338C519.757 22.7587 518.954 21.9807 518.362 20.9997C517.77 20.0187 517.474 18.9194 517.474 17.7016C517.474 16.4838 517.77 15.393 518.362 14.4289C518.954 13.4648 519.757 12.7037 520.772 12.1456C521.787 11.5705 522.937 11.283 524.222 11.283C525.507 11.283 526.658 11.5621 527.672 12.1202C528.687 12.6783 529.491 13.4479 530.083 14.4289C530.675 15.393 530.971 16.4838 530.971 17.7016C530.971 18.9194 530.675 20.0187 530.083 20.9997C529.491 21.9807 528.687 22.7587 527.672 23.3338C526.658 23.8919 525.507 24.171 524.222 24.171ZM524.222 20.6446C524.78 20.6446 525.271 20.5262 525.694 20.2894C526.116 20.0357 526.438 19.689 526.658 19.2492C526.894 18.7926 527.013 18.2766 527.013 17.7016C527.013 17.1266 526.894 16.6276 526.658 16.2048C526.421 15.765 526.091 15.4268 525.668 15.19C525.262 14.9362 524.78 14.8094 524.222 14.8094C523.681 14.8094 523.199 14.9362 522.776 15.19C522.353 15.4268 522.023 15.765 521.787 16.2048C521.55 16.6446 521.431 17.1519 521.431 17.727C521.431 18.2851 521.55 18.7926 521.787 19.2492C522.023 19.689 522.353 20.0357 522.776 20.2894C523.199 20.5262 523.681 20.6446 524.222 20.6446Z" fill="white"/>
<path fill-rule="evenodd" clip-rule="evenodd" d="M534.045 28.7123C535.077 29.1858 536.269 29.4226 537.622 29.4226C538.941 29.4226 540.117 29.1604 541.148 28.6361C542.18 28.1118 542.992 27.3846 543.584 26.4543C544.176 25.5241 544.472 24.4247 544.472 23.1562V11.5621H540.666V12.3905C540.383 12.1523 540.062 11.9523 539.702 11.7904C539.043 11.4691 538.29 11.3083 537.444 11.3083C536.311 11.3083 535.305 11.579 534.425 12.1202C533.546 12.6445 532.852 13.3718 532.345 14.302C531.838 15.2154 531.584 16.2471 531.584 17.3972C531.584 18.5304 531.838 19.5621 532.345 20.4923C532.852 21.4226 533.546 22.1583 534.425 22.6995C535.305 23.2407 536.311 23.5114 537.444 23.5114C538.273 23.5114 539.026 23.3507 539.702 23.0294C540.03 22.8737 540.326 22.6903 540.59 22.479V23.2577C540.59 24.1203 540.311 24.7883 539.753 25.2619C539.212 25.7355 538.459 25.9723 537.495 25.9723C536.717 25.9723 536.049 25.837 535.491 25.5663C534.95 25.2958 534.459 24.8983 534.019 24.3739L531.635 26.7587C532.227 27.6044 533.03 28.2556 534.045 28.7123ZM539.576 19.7059C539.186 19.9427 538.721 20.0611 538.18 20.0611C537.639 20.0611 537.165 19.9427 536.759 19.7059C536.37 19.4691 536.066 19.1477 535.846 18.7418C535.626 18.319 535.516 17.8707 535.516 17.3972C535.516 16.8898 535.626 16.4331 535.846 16.0272C536.066 15.6213 536.379 15.2999 536.785 15.0631C537.191 14.8263 537.656 14.7079 538.18 14.7079C538.721 14.7079 539.186 14.8263 539.576 15.0631C539.981 15.2999 540.286 15.6213 540.489 16.0272C540.709 16.4331 540.819 16.8898 540.819 17.3972C540.819 17.9046 540.709 18.3612 540.489 18.7671C540.286 19.1562 539.981 19.4691 539.576 19.7059Z" fill="white"/>
<path fill-rule="evenodd" clip-rule="evenodd" d="M552.641 24.171C551.372 24.171 550.222 23.8919 549.19 23.3338C548.175 22.7587 547.372 21.9807 546.78 20.9997C546.188 20.0187 545.892 18.9194 545.892 17.7016C545.892 16.4838 546.188 15.393 546.78 14.4289C547.372 13.4648 548.175 12.7037 549.19 12.1456C550.205 11.5705 551.355 11.283 552.641 11.283C553.926 11.283 555.076 11.5621 556.09 12.1202C557.106 12.6783 557.909 13.4479 558.501 14.4289C559.093 15.393 559.389 16.4838 559.389 17.7016C559.389 18.9194 559.093 20.0187 558.501 20.9997C557.909 21.9807 557.106 22.7587 556.09 23.3338C555.076 23.8919 553.926 24.171 552.641 24.171ZM552.641 20.6446C553.198 20.6446 553.689 20.5262 554.112 20.2894C554.534 20.0357 554.856 19.689 555.076 19.2492C555.313 18.7926 555.431 18.2766 555.431 17.7016C555.431 17.1266 555.313 16.6276 555.076 16.2048C554.839 15.765 554.51 15.4268 554.086 15.19C553.681 14.9362 553.198 14.8094 552.641 14.8094C552.099 14.8094 551.617 14.9362 551.194 15.19C550.771 15.4268 550.442 15.765 550.205 16.2048C549.968 16.6446 549.85 17.1519 549.85 17.727C549.85 18.2851 549.968 18.7926 550.205 19.2492C550.442 19.689 550.771 20.0357 551.194 20.2894C551.617 20.5262 552.099 20.6446 552.641 20.6446Z" fill="white"/>
<path fill-rule="evenodd" clip-rule="evenodd" d="M574.025 24.1456C573.197 24.1456 572.435 23.985 571.742 23.6636C571.377 23.4945 571.047 23.2926 570.753 23.0579V29.0928H566.922V11.5621H570.803V12.4131C571.085 12.1827 571.398 11.9836 571.742 11.8158C572.435 11.4775 573.197 11.3083 574.025 11.3083C575.192 11.3083 576.224 11.5875 577.12 12.1456C578.034 12.7037 578.744 13.4648 579.251 14.4289C579.776 15.393 580.038 16.4923 580.038 17.727C580.038 18.9617 579.776 20.0611 579.251 21.0251C578.744 21.9892 578.034 22.7503 577.12 23.3084C576.224 23.8666 575.192 24.1456 574.025 24.1456ZM573.315 20.6446C573.873 20.6446 574.355 20.5177 574.761 20.264C575.184 20.0104 575.514 19.6635 575.751 19.2239C575.987 18.7841 576.106 18.2852 576.106 17.727C576.106 17.1519 575.987 16.6446 575.751 16.2048C575.514 15.7651 575.184 15.4268 574.761 15.19C574.355 14.9363 573.882 14.8095 573.34 14.8095C572.799 14.8095 572.317 14.9363 571.895 15.19C571.488 15.4268 571.167 15.7651 570.931 16.2048C570.694 16.6446 570.575 17.1519 570.575 17.727C570.575 18.2852 570.685 18.7841 570.905 19.2239C571.142 19.6635 571.471 20.0104 571.895 20.264C572.317 20.5177 572.791 20.6446 573.315 20.6446Z" fill="white"/>
<path d="M583.837 23.9172C584.547 24.1033 585.266 24.1962 585.993 24.1962C587.532 24.1962 588.75 23.8411 589.646 23.1307C590.559 22.4204 591.016 21.4648 591.016 20.2639C591.016 19.4859 590.873 18.8601 590.585 18.3865C590.298 17.8961 589.926 17.507 589.469 17.2195C589.012 16.932 588.53 16.7036 588.022 16.5345C587.515 16.3653 587.033 16.2216 586.577 16.1032C586.12 15.9848 585.748 15.8495 585.46 15.6973C585.173 15.545 585.029 15.3421 585.029 15.0884C585.029 14.8516 585.139 14.674 585.358 14.5556C585.578 14.4203 585.908 14.3527 586.348 14.3527C586.805 14.3527 587.27 14.4457 587.743 14.6317C588.234 14.8177 588.674 15.1392 589.062 15.5958L591.27 13.3633C590.712 12.6529 589.985 12.1201 589.088 11.7649C588.209 11.3929 587.245 11.2068 586.196 11.2068C585.198 11.2068 584.327 11.3759 583.583 11.7141C582.838 12.0525 582.263 12.5176 581.858 13.1095C581.452 13.6845 581.249 14.3696 581.249 15.1645C581.249 15.9087 581.393 16.5261 581.68 17.0165C581.967 17.4901 582.34 17.8622 582.796 18.1328C583.253 18.4034 583.735 18.6149 584.242 18.767C584.75 18.9193 585.232 19.063 585.689 19.1984C586.145 19.3168 586.518 19.4605 586.805 19.6297C587.11 19.7819 587.262 20.0102 587.262 20.3146C587.262 20.5514 587.134 20.7374 586.881 20.8728C586.644 21.0081 586.298 21.0757 585.841 21.0757C585.181 21.0757 584.572 20.9573 584.014 20.7205C583.456 20.4669 582.974 20.1201 582.568 19.6804L580.361 21.9129C580.784 22.3696 581.291 22.7756 581.883 23.1307C582.492 23.4689 583.143 23.7311 583.837 23.9172Z" fill="white"/>
<path d="M598.095 24.1709C596.962 24.1709 595.955 23.9426 595.076 23.4859C594.213 23.0123 593.537 22.3696 593.047 21.5578C592.555 20.7291 592.311 19.7819 592.311 18.7163V11.562H596.192V18.6656C596.192 19.0884 596.259 19.4521 596.395 19.7565C596.547 20.061 596.767 20.2978 597.055 20.4669C597.343 20.636 597.689 20.7206 598.095 20.7206C598.67 20.7206 599.127 20.543 599.465 20.1878C599.803 19.8157 599.972 19.3083 599.972 18.6656V11.562H603.854V18.691C603.854 19.7735 603.609 20.7291 603.118 21.5578C602.627 22.3696 601.951 23.0123 601.088 23.4859C600.226 23.9426 599.228 24.1709 598.095 24.1709Z" fill="white"/>
<path d="M609.665 11.5621H605.783V23.8919H609.665V16.6868C609.665 16.264 609.75 15.9088 609.918 15.6213C610.105 15.3338 610.35 15.1139 610.654 14.9617C610.959 14.7925 611.306 14.7079 611.694 14.7079C612.253 14.7079 612.718 14.8856 613.09 15.2408C613.479 15.579 613.674 16.0611 613.674 16.6868V23.8919H617.555V16.6868C617.555 16.264 617.64 15.9088 617.809 15.6213C617.995 15.3338 618.24 15.1139 618.545 14.9617C618.849 14.7925 619.196 14.7079 619.585 14.7079C620.143 14.7079 620.608 14.8856 620.98 15.2408C621.369 15.579 621.563 16.0611 621.563 16.6868V23.8919H625.446V16.2555C625.446 15.2239 625.226 14.3444 624.786 13.6171C624.362 12.8728 623.779 12.3063 623.035 11.9173C622.308 11.5113 621.47 11.3083 620.523 11.3083C619.559 11.3083 618.688 11.5198 617.91 11.9427C617.405 12.212 616.963 12.5597 616.585 12.9856C616.232 12.5401 615.803 12.1756 615.297 11.8919C614.621 11.5029 613.851 11.3083 612.989 11.3083C612.075 11.3083 611.255 11.5029 610.528 11.8919C610.211 12.0537 609.924 12.2476 609.665 12.4734V11.5621Z" fill="white"/>
</g>
<defs>
<clipPath id="clip0_9_823">
<rect width="161.6" height="32" fill="white" transform="translate(464.2)"/>
</clipPath>
</defs>
</svg>
