<svg width="24" height="24" viewBox="0 0 24 24" fill="none" xmlns="http://www.w3.org/2000/svg">
<g clip-path="url(#clip0_6_475)">
<path d="M12.0016 -0.000244141C8.74258 -0.000244141 8.33358 0.0140062 7.05356 0.0722569C5.77605 0.130758 4.90404 0.33301 4.14103 0.629763C3.35177 0.936266 2.68227 1.34627 2.01526 2.01353C1.34775 2.68054 0.937748 3.35004 0.630245 4.13905C0.332741 4.90231 0.13024 5.77457 0.0727389 7.05158C0.0154883 8.3316 0.000488281 8.74085 0.000488281 11.9999C0.000488281 15.2589 0.0149887 15.6667 0.0729893 16.9467C0.13174 18.2242 0.333992 19.0962 0.630495 19.8592C0.937248 20.6485 1.34725 21.318 2.01451 21.985C2.68127 22.6525 3.35077 23.0635 4.13953 23.37C4.90304 23.6668 5.7753 23.869 7.05256 23.9275C8.33257 23.9858 8.74133 24 12.0001 24C15.2594 24 15.6672 23.9858 16.9472 23.9275C18.2247 23.869 19.0977 23.6668 19.8612 23.37C20.6502 23.0635 21.3187 22.6525 21.9855 21.985C22.653 21.318 23.063 20.6485 23.3705 19.8595C23.6655 19.0962 23.868 18.224 23.928 16.9469C23.9855 15.6669 24.0005 15.2589 24.0005 11.9999C24.0005 8.74085 23.9855 8.33185 23.928 7.05183C23.868 5.77432 23.6655 4.90231 23.3705 4.1393C23.063 3.35004 22.653 2.68054 21.9855 2.01353C21.318 1.34602 20.6505 0.936016 19.8604 0.629763C19.0954 0.33301 18.2229 0.130758 16.9454 0.0722569C15.6654 0.0140062 15.2579 -0.000244141 11.9979 -0.000244141H12.0016ZM10.9251 2.16228C11.2446 2.16178 11.6011 2.16228 12.0016 2.16228C15.2056 2.16228 15.5854 2.17378 16.8507 2.23128C18.0207 2.28478 18.6557 2.48028 19.0787 2.64453C19.6387 2.86204 20.0379 3.12204 20.4577 3.54204C20.8777 3.96205 21.1377 4.36205 21.3557 4.92206C21.52 5.34456 21.7157 5.97957 21.769 7.14958C21.8265 8.4146 21.839 8.7946 21.839 11.9971C21.839 15.1997 21.8265 15.5797 21.769 16.8447C21.7155 18.0147 21.52 18.6497 21.3557 19.0722C21.1382 19.6322 20.8777 20.031 20.4577 20.4507C20.0377 20.8707 19.6389 21.1307 19.0787 21.3482C18.6562 21.5132 18.0207 21.7082 16.8507 21.7617C15.5857 21.8192 15.2056 21.8317 12.0016 21.8317C8.79733 21.8317 8.41758 21.8192 7.15256 21.7617C5.98255 21.7077 5.34754 21.5122 4.92429 21.348C4.36428 21.1305 3.96428 20.8705 3.54427 20.4505C3.12427 20.0305 2.86427 19.6315 2.64627 19.0712C2.48201 18.6487 2.28626 18.0137 2.23301 16.8437C2.17551 15.5787 2.16401 15.1987 2.16401 11.9941C2.16401 8.7896 2.17551 8.4116 2.23301 7.14658C2.28651 5.97657 2.48201 5.34156 2.64627 4.91856C2.86377 4.35855 3.12427 3.95855 3.54427 3.53854C3.96428 3.11854 4.36428 2.85854 4.92429 2.64053C5.34729 2.47553 5.98255 2.28053 7.15256 2.22678C8.25957 2.17678 8.68858 2.16178 10.9251 2.15928V2.16228ZM18.4072 4.1548C17.6122 4.1548 16.9672 4.79906 16.9672 5.59432C16.9672 6.38932 17.6122 7.03433 18.4072 7.03433C19.2022 7.03433 19.8472 6.38932 19.8472 5.59432C19.8472 4.79931 19.2022 4.1543 18.4072 4.1543V4.1548ZM12.0016 5.83732C8.59833 5.83732 5.83905 8.5966 5.83905 11.9999C5.83905 15.4032 8.59833 18.1612 12.0016 18.1612C15.4049 18.1612 18.1632 15.4032 18.1632 11.9999C18.1632 8.5966 15.4049 5.83732 12.0016 5.83732ZM12.0016 7.99984C14.2106 7.99984 16.0017 9.79061 16.0017 11.9999C16.0017 14.2089 14.2106 15.9999 12.0016 15.9999C9.79234 15.9999 8.00157 14.2089 8.00157 11.9999C8.00157 9.79061 9.79234 7.99984 12.0016 7.99984Z" fill="white"/>
</g>
<defs>
<clipPath id="clip0_6_475">
<rect width="24.0007" height="24" fill="white"/>
</clipPath>
</defs>
</svg>
