<svg width="132" height="26" viewBox="0 0 132 26" fill="none" xmlns="http://www.w3.org/2000/svg">
<g clip-path="url(#clip0_6_910)">
<path fill-rule="evenodd" clip-rule="evenodd" d="M16.6112 7.59545C15.5423 6.88123 14.2856 6.5 13 6.5V0C15.5711 0 18.0846 0.762437 20.2224 2.1909C22.3603 3.61935 24.0265 5.64968 25.0104 8.0251C25.9943 10.4005 26.2518 13.0144 25.7502 15.5362C25.2486 18.0579 24.0105 20.3743 22.1924 22.1924C20.3743 24.0105 18.0579 25.2486 15.5362 25.7502C13.0144 26.2518 10.4005 25.9943 8.02509 25.0104C5.64967 24.0265 3.61935 22.3603 2.1909 20.2224C0.762437 18.0846 0 15.5711 0 13H6.5C6.5 14.2856 6.88122 15.5423 7.59544 16.6112C8.30966 17.6801 9.32483 18.5132 10.5126 19.0052C11.7003 19.4972 13.0072 19.6259 14.2681 19.3751C15.529 19.1243 16.6871 18.5052 17.5962 17.5962C18.5052 16.6871 19.1243 15.529 19.3751 14.2681C19.6259 13.0072 19.4972 11.7003 19.0052 10.5126C18.5132 9.32484 17.6801 8.30967 16.6112 7.59545Z" fill="#1E3D79"/>
<path fill-rule="evenodd" clip-rule="evenodd" d="M6.5 3.4352e-06C6.5 0.853595 6.33187 1.69883 6.00522 2.48745C5.67856 3.27606 5.19978 3.99261 4.59619 4.5962C3.99262 5.19978 3.27606 5.67857 2.48744 6.00522C1.69882 6.33187 0.853589 6.5 2.84122e-07 6.5L0 13C1.70718 13 3.39765 12.6638 4.97489 12.0104C6.55213 11.3571 7.98525 10.3995 9.19236 9.19237C10.3995 7.98525 11.3571 6.55213 12.0104 4.97489C12.6638 3.39765 13 1.70718 13 0L6.5 3.4352e-06Z" fill="#1E3D79"/>
<path d="M81.6523 9.39412H78.4985V19.4121H81.6523V9.39412Z" fill="#1E3D79"/>
<path d="M78.8495 7.51829C79.179 7.8481 79.5911 8.01301 80.0858 8.01301C80.5805 8.01301 80.9861 7.8481 81.302 7.51829C81.6185 7.17477 81.7765 6.76247 81.7765 6.28151C81.7765 5.7868 81.6185 5.37452 81.302 5.04472C80.9861 4.7149 80.5805 4.55 80.0858 4.55C79.5911 4.55 79.179 4.7149 78.8495 5.04472C78.5329 5.37452 78.375 5.7868 78.375 6.28151C78.375 6.76247 78.5329 7.17477 78.8495 7.51829Z" fill="#1E3D79"/>
<path d="M33.2515 19.4121V4.85919H36.4878V16.5675H42.9397V19.4121H33.2515Z" fill="#1E3D79"/>
<path fill-rule="evenodd" clip-rule="evenodd" d="M48.7677 19.6388C47.7371 19.6388 46.8027 19.4121 45.9644 18.9586C45.1398 18.4914 44.4871 17.8593 44.0061 17.0622C43.5252 16.2651 43.2847 15.3719 43.2847 14.3825C43.2847 13.3931 43.5252 12.5067 44.0061 11.7234C44.4871 10.9401 45.1398 10.3217 45.9644 9.86824C46.7889 9.40095 47.7234 9.16734 48.7677 9.16734C49.8122 9.16734 50.7466 9.39413 51.5711 9.84757C52.3956 10.3011 53.0484 10.9264 53.5294 11.7234C54.0104 12.5067 54.2509 13.3931 54.2509 14.3825C54.2509 15.3719 54.0104 16.2651 53.5294 17.0622C53.0484 17.8593 52.3956 18.4914 51.5711 18.9586C50.7466 19.4121 49.8122 19.6388 48.7677 19.6388ZM48.7677 16.7736C49.2212 16.7736 49.6198 16.6774 49.9633 16.485C50.3069 16.2789 50.568 15.9972 50.7466 15.6399C50.939 15.2689 51.0352 14.8497 51.0352 14.3825C51.0352 13.9153 50.939 13.5099 50.7466 13.1663C50.5542 12.809 50.2863 12.5342 49.9427 12.3418C49.6129 12.1356 49.2212 12.0326 48.7677 12.0326C48.328 12.0326 47.9364 12.1356 47.5928 12.3418C47.2493 12.5342 46.9813 12.809 46.7889 13.1663C46.5965 13.5236 46.5003 13.9359 46.5003 14.4031C46.5003 14.8566 46.5965 15.2689 46.7889 15.6399C46.9813 15.9972 47.2493 16.2789 47.5928 16.485C47.9364 16.6774 48.328 16.7736 48.7677 16.7736Z" fill="#1E3D79"/>
<path fill-rule="evenodd" clip-rule="evenodd" d="M56.7485 23.3286C57.5867 23.7134 58.5556 23.9058 59.655 23.9058C60.7268 23.9058 61.6819 23.6928 62.5202 23.2667C63.3585 22.8407 64.018 22.2499 64.499 21.4941C64.98 20.7382 65.2208 19.845 65.2208 18.8143V9.39412H62.1285V10.0672C61.8985 9.87363 61.6373 9.71113 61.3452 9.57963C60.8092 9.31853 60.1977 9.18794 59.5107 9.18794C58.5899 9.18794 57.7722 9.40784 57.0577 9.84756C56.343 10.2736 55.7797 10.8645 55.3674 11.6203C54.9551 12.3624 54.749 13.2007 54.749 14.1352C54.749 15.0559 54.9551 15.8941 55.3674 16.6499C55.7797 17.4058 56.343 18.0036 57.0577 18.4433C57.7722 18.883 58.5899 19.1029 59.5107 19.1029C60.184 19.1029 60.7955 18.9724 61.3452 18.7113C61.6115 18.5848 61.852 18.4358 62.0667 18.2641V18.8968C62.0667 19.5976 61.8399 20.1404 61.3864 20.5252C60.9467 20.91 60.3352 21.1024 59.5519 21.1024C58.9197 21.1024 58.3769 20.9925 57.9234 20.7726C57.4837 20.5527 57.0851 20.2298 56.7278 19.8037L54.7902 21.7414C55.2712 22.4285 55.924 22.9576 56.7485 23.3286ZM61.2421 16.0109C60.926 16.2033 60.5482 16.2995 60.1084 16.2995C59.6687 16.2995 59.2839 16.2033 58.9541 16.0109C58.638 15.8185 58.3906 15.5574 58.212 15.2276C58.0333 14.8841 57.944 14.5199 57.944 14.1352C57.944 13.7229 58.0333 13.3518 58.212 13.022C58.3906 12.6922 58.6449 12.4311 58.9747 12.2387C59.3045 12.0463 59.6824 11.9501 60.1084 11.9501C60.5482 11.9501 60.926 12.0463 61.2421 12.2387C61.5719 12.4311 61.8193 12.6922 61.9842 13.022C62.1629 13.3518 62.2522 13.7229 62.2522 14.1352C62.2522 14.5474 62.1629 14.9184 61.9842 15.2482C61.8193 15.5643 61.5719 15.8185 61.2421 16.0109Z" fill="#1E3D79"/>
<path fill-rule="evenodd" clip-rule="evenodd" d="M71.8579 19.6388C70.827 19.6388 69.8923 19.4121 69.0545 18.9586C68.2296 18.4914 67.577 17.8593 67.096 17.0622C66.615 16.2651 66.3745 15.3719 66.3745 14.3825C66.3745 13.3931 66.615 12.5067 67.096 11.7234C67.577 10.9401 68.2296 10.3217 69.0545 9.86824C69.8787 9.40095 70.8134 9.16734 71.8579 9.16734C72.9018 9.16734 73.8365 9.39413 74.6607 9.84757C75.4856 10.3011 76.1382 10.9264 76.6192 11.7234C77.1002 12.5067 77.3407 13.3931 77.3407 14.3825C77.3407 15.3719 77.1002 16.2651 76.6192 17.0622C76.1382 17.8593 75.4856 18.4914 74.6607 18.9586C73.8365 19.4121 72.9018 19.6388 71.8579 19.6388ZM71.8579 16.7736C72.311 16.7736 72.7094 16.6774 73.0533 16.485C73.3965 16.2789 73.6578 15.9972 73.8365 15.6399C74.0289 15.2689 74.1251 14.8497 74.1251 14.3825C74.1251 13.9153 74.0289 13.5099 73.8365 13.1663C73.6441 12.809 73.3763 12.5342 73.0325 12.3418C72.7029 12.1356 72.311 12.0326 71.8579 12.0326C71.4179 12.0326 71.0259 12.1356 70.6827 12.3418C70.3389 12.5342 70.0711 12.809 69.8787 13.1663C69.6863 13.5236 69.5901 13.9359 69.5901 14.4031C69.5901 14.8566 69.6863 15.2689 69.8787 15.6399C70.0711 15.9972 70.3389 16.2789 70.6827 16.485C71.0259 16.6774 71.4179 16.7736 71.8579 16.7736Z" fill="#1E3D79"/>
<path fill-rule="evenodd" clip-rule="evenodd" d="M89.2328 19.6182C88.56 19.6182 87.9412 19.4877 87.3777 19.2266C87.0813 19.0892 86.8135 18.9251 86.5743 18.7344V23.6378H83.4614V9.39412H86.6152V10.0855C86.844 9.89839 87.0982 9.73661 87.3777 9.60024C87.9412 9.32535 88.56 9.18794 89.2328 9.18794C90.1811 9.18794 91.0196 9.41473 91.7476 9.86823C92.4899 10.3217 93.0671 10.9401 93.4792 11.7234C93.9056 12.5067 94.1182 13.3999 94.1182 14.4031C94.1182 15.4063 93.9056 16.2995 93.4792 17.0828C93.0671 17.8662 92.4899 18.4845 91.7476 18.938C91.0196 19.3915 90.1811 19.6182 89.2328 19.6182ZM88.6562 16.7736C89.1093 16.7736 89.5012 16.6705 89.8308 16.4644C90.1746 16.2583 90.4424 15.9765 90.6348 15.6193C90.8272 15.262 90.9234 14.8566 90.9234 14.4031C90.9234 13.9359 90.8272 13.5236 90.6348 13.1663C90.4424 12.809 90.1746 12.5342 89.8308 12.3418C89.5012 12.1356 89.1164 12.0326 88.6764 12.0326C88.237 12.0326 87.845 12.1356 87.5018 12.3418C87.1716 12.5342 86.911 12.809 86.7186 13.1663C86.5262 13.5236 86.43 13.9359 86.43 14.4031C86.43 14.8566 86.519 15.262 86.6978 15.6193C86.8902 15.9765 87.158 16.2583 87.5018 16.4644C87.845 16.6705 88.2298 16.7736 88.6562 16.7736Z" fill="#1E3D79"/>
<path d="M97.2051 19.4327C97.7823 19.5839 98.366 19.6595 98.9569 19.6595C100.207 19.6595 101.197 19.3709 101.925 18.7937C102.667 18.2166 103.038 17.4402 103.038 16.4644C103.038 15.8323 102.922 15.3238 102.688 14.9391C102.455 14.5406 102.152 14.2245 101.781 13.9909C101.41 13.7573 101.018 13.5717 100.606 13.4343C100.194 13.2969 99.8019 13.1801 99.4314 13.0839C99.0602 12.9877 98.758 12.8777 98.524 12.754C98.2906 12.6303 98.1736 12.4654 98.1736 12.2593C98.1736 12.0669 98.2633 11.9226 98.4414 11.8264C98.6202 11.7165 98.888 11.6616 99.2455 11.6616C99.6166 11.6616 99.9943 11.7371 100.379 11.8883C100.778 12.0394 101.135 12.3006 101.451 12.6716L103.244 10.8577C102.791 10.2805 102.2 9.84757 101.472 9.55903C100.757 9.25672 99.9741 9.10553 99.122 9.10553C98.3114 9.10553 97.6036 9.24294 96.9991 9.51776C96.3939 9.79264 95.9266 10.1706 95.597 10.6515C95.2675 11.1187 95.1024 11.6753 95.1024 12.3212C95.1024 12.9258 95.2194 13.4274 95.4527 13.826C95.6861 14.2107 95.989 14.5131 96.3595 14.7329C96.7306 14.9528 97.1226 15.1246 97.5347 15.2482C97.9468 15.3719 98.3387 15.4887 98.7099 15.5987C99.0804 15.6949 99.3833 15.8117 99.6166 15.9491C99.8643 16.0728 99.9878 16.2583 99.9878 16.5056C99.9878 16.698 99.8844 16.8492 99.6784 16.9592C99.486 17.0691 99.2045 17.1241 98.8334 17.1241C98.2971 17.1241 97.8025 17.0279 97.3494 16.8355C96.8957 16.6293 96.5038 16.3476 96.1742 15.9903L94.3809 17.8043C94.7247 18.1753 95.1368 18.5052 95.6178 18.7937C96.1125 19.0685 96.6416 19.2815 97.2051 19.4327Z" fill="#1E3D79"/>
<path d="M108.789 19.6388C107.869 19.6388 107.051 19.4533 106.337 19.0823C105.636 18.6975 105.086 18.1753 104.688 17.5157C104.289 16.8423 104.09 16.0728 104.09 15.207V9.39412H107.244V15.1658C107.244 15.5093 107.298 15.8048 107.409 16.0521C107.532 16.2995 107.711 16.4919 107.944 16.6293C108.178 16.7667 108.46 16.8354 108.789 16.8354C109.257 16.8354 109.628 16.6911 109.903 16.4025C110.178 16.1002 110.315 15.688 110.315 15.1658V9.39412H113.469V15.1864C113.469 16.0659 113.27 16.8423 112.871 17.5157C112.472 18.1753 111.923 18.6975 111.222 19.0823C110.521 19.4533 109.71 19.6388 108.789 19.6388Z" fill="#1E3D79"/>
<path d="M118.19 9.39412H115.036V19.4121H118.19V13.558C118.19 13.2144 118.259 12.9258 118.396 12.6922C118.547 12.4586 118.747 12.2799 118.994 12.1563C119.242 12.0188 119.523 11.9501 119.839 11.9501C120.293 11.9501 120.67 12.0944 120.973 12.383C121.289 12.6578 121.447 13.0495 121.447 13.558V19.4121H124.601V13.558C124.601 13.2144 124.67 12.9258 124.807 12.6922C124.958 12.4586 125.157 12.2799 125.405 12.1563C125.652 12.0188 125.934 11.9501 126.25 11.9501C126.704 11.9501 127.081 12.0944 127.384 12.383C127.699 12.6578 127.857 13.0495 127.857 13.558V19.4121H131.012V13.2075C131.012 12.3693 130.833 11.6547 130.476 11.0638C130.132 10.4591 129.658 9.99875 129.053 9.68272C128.463 9.35285 127.782 9.18794 127.012 9.18794C126.229 9.18794 125.521 9.35974 124.889 9.70333C124.479 9.92218 124.12 10.2047 123.812 10.5507C123.526 10.1887 123.177 9.89254 122.766 9.66205C122.217 9.34602 121.591 9.18794 120.891 9.18794C120.148 9.18794 119.482 9.34602 118.891 9.66205C118.634 9.79355 118.401 9.95104 118.19 10.1345V9.39412Z" fill="#1E3D79"/>
</g>
<defs>
<clipPath id="clip0_6_910">
<rect width="131.3" height="26" fill="white"/>
</clipPath>
</defs>
</svg>
